<svg width="24" height="24" viewBox="0 0 24 24" fill="none" xmlns="http://www.w3.org/2000/svg">
<path d="M22.497 3C22.4985 3.0015 22.4985 3.0015 22.5 3.003V20.997C22.4985 20.9985 22.4985 20.9985 22.497 21H1.503C1.5015 20.9985 1.5015 20.9985 1.5 20.997V3.003C1.5015 3.0015 1.5015 3.0015 1.503 3H22.497ZM22.5 1.5H1.5C0.675 1.5 0 2.175 0 3V21C0 21.825 0.675 22.5 1.5 22.5H22.5C23.325 22.5 24 21.825 24 21V3C24 2.175 23.325 1.5 22.5 1.5Z" />
<path d="M19.5 6.75C19.5 7.992 18.492 9 17.25 9C16.008 9 15 7.992 15 6.75C15 5.508 16.008 4.5 17.25 4.5C18.492 4.5 19.5 5.508 19.5 6.75Z" />
<path d="M21 19.5H3V16.5L8.25 7.5L14.25 15H15.75L21 10.5V19.5Z" />
</svg>
