<svg  viewBox="0 0 44 44" fill="none" xmlns="http://www.w3.org/2000/svg">
<path d="M2 3.62824V33.5424C2 33.8958 2.18662 34.2231 2.49086 34.403L14.9096 41.7493C15.1768 41.9074 15.5022 41.9324 15.7904 41.817L27.6462 37.0712C27.8741 36.98 28.1275 36.9758 28.3583 37.0594L40.6595 41.5145C41.3114 41.7506 42 41.2677 42 40.5743V9.36766C42 8.99461 41.7924 8.65258 41.4614 8.48046L29.4501 2.23406C29.1672 2.08694 28.8311 2.08355 28.5453 2.22493L15.7823 8.53849C15.4997 8.67827 15.1678 8.67662 14.8866 8.53407L3.45223 2.73634C2.78702 2.39905 2 2.8824 2 3.62824Z"  stroke-width="4"/>
<path d="M15 9V41"  stroke-width="4" stroke-linecap="round"/>
<path d="M29 3V37"  stroke-width="4" stroke-linecap="round"/>
</svg>
